<svg width="64" height="64" viewBox="0 0 64 64" version="1.1" xmlns="http://www.w3.org/2000/svg" xmlns:xlink="http://www.w3.org/1999/xlink" xml:space="preserve" xmlns:serif="http://www.serif.com/" style="fill-rule:evenodd;clip-rule:evenodd;stroke-linecap:round;stroke-linejoin:round;stroke-miterlimit:1.5;">

    <path d="M0,0L64,0L64,48L48,64L0,64L0,0Z" style="fill:rgb(17,17,17);fill-rule:nonzero;"/>

    <g transform="matrix(0.140488,0,0,0.139686,-23.2231,-20.3687)">
        <path d="M393.01,491.864L450.414,524.736L538.58,473.764L538.793,372.863L480.509,338.593L480.498,274.824L393.421,225.072L304.771,275.825L304.607,340.287L247.371,372.966L247.69,474.567L335.695,524.67L393.01,491.864ZM335.593,513.377L382.561,485.947L362.837,474.126L362.039,410.408L305.457,374.904L304.879,350.039L256.942,377.387L257.171,468.447L335.593,513.377ZM424.17,409.857L481.145,374.904L480.762,350.039L529.153,378.027L529.519,468.544L451.245,513.377L403.149,485.635L424.349,473.637L424.17,409.857ZM371.586,468.722L393.309,481.451L415.031,468.855L415.031,416.575L393.309,427.392L371.586,416.575L371.586,468.722ZM371.586,404.777L392.538,416.575L415.031,404.445L414.454,377.303L392.538,365.446L371.813,377.582L371.586,404.777ZM424.683,398.333L424.091,372.149L403.149,360.961L450.697,332.56L471.244,343.771L471.244,370.218L424.683,398.333ZM313.831,345.964L313.831,371.287L361.631,398.333L362.357,371.416L382.561,359.884L336.712,332.56L313.831,345.964ZM314.322,333.31L335.443,321.477L393.082,353.834L450.225,321.393L471.08,333.522L471.244,280.504L393.082,236.206L313.831,281.987L314.322,333.31Z" style="fill:white;stroke:white;stroke-width:7.14px;"/>
    </g>
</svg>
